<mxfile host="app.diagrams.net" modified="2023-05-25T16:22:56.385Z" agent="Mozilla/5.0 (Windows NT 10.0; Win64; x64; rv:109.0) Gecko/20100101 Firefox/113.0" etag="6VpX1D_AK_j3_zcTVchL" version="21.3.4" type="device">
  <diagram name="Page-1" id="2QFJvKhBL3ynvN7DOMBo">
    <mxGraphModel dx="2049" dy="1066" grid="1" gridSize="10" guides="1" tooltips="1" connect="1" arrows="1" fold="1" page="1" pageScale="1" pageWidth="850" pageHeight="1100" math="0" shadow="1">
      <root>
        <mxCell id="0" />
        <mxCell id="1" parent="0" />
        <mxCell id="r-1iJy8fbPnaVpHln99F-12" style="edgeStyle=orthogonalEdgeStyle;rounded=0;orthogonalLoop=1;jettySize=auto;html=1;" edge="1" parent="1" source="r-1iJy8fbPnaVpHln99F-1" target="r-1iJy8fbPnaVpHln99F-6">
          <mxGeometry relative="1" as="geometry" />
        </mxCell>
        <mxCell id="r-1iJy8fbPnaVpHln99F-14" style="edgeStyle=orthogonalEdgeStyle;rounded=0;orthogonalLoop=1;jettySize=auto;html=1;" edge="1" parent="1" source="r-1iJy8fbPnaVpHln99F-1" target="r-1iJy8fbPnaVpHln99F-7">
          <mxGeometry relative="1" as="geometry" />
        </mxCell>
        <mxCell id="r-1iJy8fbPnaVpHln99F-17" style="edgeStyle=orthogonalEdgeStyle;rounded=0;orthogonalLoop=1;jettySize=auto;html=1;" edge="1" parent="1" source="r-1iJy8fbPnaVpHln99F-1" target="r-1iJy8fbPnaVpHln99F-8">
          <mxGeometry relative="1" as="geometry" />
        </mxCell>
        <mxCell id="r-1iJy8fbPnaVpHln99F-1" value="&lt;div&gt;&lt;font style=&quot;font-size: 24px;&quot;&gt;&lt;b&gt;Generating realistic terrains &lt;br&gt;&lt;/b&gt;&lt;/font&gt;&lt;/div&gt;&lt;div&gt;&lt;font style=&quot;font-size: 24px;&quot;&gt;&lt;b&gt;using noise functions &lt;br&gt;&lt;/b&gt;&lt;/font&gt;&lt;/div&gt;&lt;div&gt;&lt;font style=&quot;font-size: 24px;&quot;&gt;&lt;b&gt;and erosion algorithms&lt;/b&gt;&lt;/font&gt;&lt;/div&gt;" style="rounded=1;whiteSpace=wrap;html=1;arcSize=50;fillColor=#dae8fc;strokeColor=#6c8ebf;strokeWidth=10;glass=0;shadow=1;" vertex="1" parent="1">
          <mxGeometry x="605" y="710" width="380" height="120" as="geometry" />
        </mxCell>
        <mxCell id="r-1iJy8fbPnaVpHln99F-29" style="edgeStyle=orthogonalEdgeStyle;rounded=0;orthogonalLoop=1;jettySize=auto;html=1;" edge="1" parent="1" source="r-1iJy8fbPnaVpHln99F-2" target="r-1iJy8fbPnaVpHln99F-28">
          <mxGeometry relative="1" as="geometry" />
        </mxCell>
        <mxCell id="r-1iJy8fbPnaVpHln99F-33" style="edgeStyle=orthogonalEdgeStyle;rounded=0;orthogonalLoop=1;jettySize=auto;html=1;entryX=1;entryY=0.5;entryDx=0;entryDy=0;" edge="1" parent="1" source="r-1iJy8fbPnaVpHln99F-2" target="r-1iJy8fbPnaVpHln99F-30">
          <mxGeometry relative="1" as="geometry" />
        </mxCell>
        <mxCell id="r-1iJy8fbPnaVpHln99F-35" style="edgeStyle=orthogonalEdgeStyle;rounded=0;orthogonalLoop=1;jettySize=auto;html=1;" edge="1" parent="1" source="r-1iJy8fbPnaVpHln99F-2" target="r-1iJy8fbPnaVpHln99F-34">
          <mxGeometry relative="1" as="geometry" />
        </mxCell>
        <mxCell id="r-1iJy8fbPnaVpHln99F-37" style="edgeStyle=orthogonalEdgeStyle;rounded=0;orthogonalLoop=1;jettySize=auto;html=1;" edge="1" parent="1" source="r-1iJy8fbPnaVpHln99F-2" target="r-1iJy8fbPnaVpHln99F-36">
          <mxGeometry relative="1" as="geometry" />
        </mxCell>
        <mxCell id="r-1iJy8fbPnaVpHln99F-2" value="&lt;font style=&quot;font-size: 22px;&quot;&gt;Erosion&lt;/font&gt;" style="rounded=0;whiteSpace=wrap;html=1;fillColor=#d5e8d4;strokeColor=#82b366;" vertex="1" parent="1">
          <mxGeometry x="480" y="430" width="100" height="40" as="geometry" />
        </mxCell>
        <mxCell id="r-1iJy8fbPnaVpHln99F-21" style="edgeStyle=orthogonalEdgeStyle;rounded=0;orthogonalLoop=1;jettySize=auto;html=1;" edge="1" parent="1" source="r-1iJy8fbPnaVpHln99F-3" target="r-1iJy8fbPnaVpHln99F-20">
          <mxGeometry relative="1" as="geometry" />
        </mxCell>
        <mxCell id="r-1iJy8fbPnaVpHln99F-3" value="&lt;font style=&quot;font-size: 22px;&quot;&gt;Vegetation&lt;/font&gt;" style="rounded=0;whiteSpace=wrap;html=1;fillColor=#d5e8d4;strokeColor=#82b366;" vertex="1" parent="1">
          <mxGeometry x="970" y="420" width="140" height="40" as="geometry" />
        </mxCell>
        <mxCell id="r-1iJy8fbPnaVpHln99F-13" style="edgeStyle=orthogonalEdgeStyle;rounded=0;orthogonalLoop=1;jettySize=auto;html=1;" edge="1" parent="1" source="r-1iJy8fbPnaVpHln99F-6" target="r-1iJy8fbPnaVpHln99F-2">
          <mxGeometry relative="1" as="geometry" />
        </mxCell>
        <mxCell id="r-1iJy8fbPnaVpHln99F-24" style="edgeStyle=orthogonalEdgeStyle;rounded=0;orthogonalLoop=1;jettySize=auto;html=1;entryX=1;entryY=0.5;entryDx=0;entryDy=0;" edge="1" parent="1" source="r-1iJy8fbPnaVpHln99F-6" target="r-1iJy8fbPnaVpHln99F-22">
          <mxGeometry relative="1" as="geometry" />
        </mxCell>
        <mxCell id="r-1iJy8fbPnaVpHln99F-6" value="&lt;font style=&quot;font-size: 22px;&quot;&gt;Fluid&lt;/font&gt;" style="rounded=0;whiteSpace=wrap;html=1;fillColor=#d5e8d4;strokeColor=#82b366;" vertex="1" parent="1">
          <mxGeometry x="490" y="590" width="80" height="40" as="geometry" />
        </mxCell>
        <mxCell id="r-1iJy8fbPnaVpHln99F-15" style="edgeStyle=orthogonalEdgeStyle;rounded=0;orthogonalLoop=1;jettySize=auto;html=1;entryX=0.53;entryY=0.85;entryDx=0;entryDy=0;entryPerimeter=0;" edge="1" parent="1" source="r-1iJy8fbPnaVpHln99F-7" target="r-1iJy8fbPnaVpHln99F-10">
          <mxGeometry relative="1" as="geometry">
            <Array as="points">
              <mxPoint x="795" y="454" />
            </Array>
          </mxGeometry>
        </mxCell>
        <mxCell id="r-1iJy8fbPnaVpHln99F-16" style="edgeStyle=orthogonalEdgeStyle;rounded=0;orthogonalLoop=1;jettySize=auto;html=1;" edge="1" parent="1" source="r-1iJy8fbPnaVpHln99F-7" target="r-1iJy8fbPnaVpHln99F-3">
          <mxGeometry relative="1" as="geometry" />
        </mxCell>
        <mxCell id="r-1iJy8fbPnaVpHln99F-7" value="&lt;font style=&quot;font-size: 22px;&quot;&gt;Rendering&lt;/font&gt;" style="rounded=0;whiteSpace=wrap;html=1;fillColor=#d5e8d4;strokeColor=#82b366;" vertex="1" parent="1">
          <mxGeometry x="735" y="570" width="120" height="40" as="geometry" />
        </mxCell>
        <mxCell id="r-1iJy8fbPnaVpHln99F-40" style="edgeStyle=orthogonalEdgeStyle;rounded=0;orthogonalLoop=1;jettySize=auto;html=1;" edge="1" parent="1" source="r-1iJy8fbPnaVpHln99F-8" target="r-1iJy8fbPnaVpHln99F-38">
          <mxGeometry relative="1" as="geometry" />
        </mxCell>
        <mxCell id="r-1iJy8fbPnaVpHln99F-8" value="&lt;font style=&quot;font-size: 22px;&quot;&gt;Terrain Generation&lt;/font&gt;" style="rounded=0;whiteSpace=wrap;html=1;fillColor=#d5e8d4;strokeColor=#82b366;" vertex="1" parent="1">
          <mxGeometry x="1090" y="740" width="120" height="60" as="geometry" />
        </mxCell>
        <mxCell id="r-1iJy8fbPnaVpHln99F-27" style="edgeStyle=orthogonalEdgeStyle;rounded=0;orthogonalLoop=1;jettySize=auto;html=1;" edge="1" parent="1" source="r-1iJy8fbPnaVpHln99F-10" target="r-1iJy8fbPnaVpHln99F-25">
          <mxGeometry relative="1" as="geometry">
            <Array as="points">
              <mxPoint x="820" y="360" />
              <mxPoint x="780" y="360" />
            </Array>
          </mxGeometry>
        </mxCell>
        <mxCell id="r-1iJy8fbPnaVpHln99F-43" style="edgeStyle=orthogonalEdgeStyle;rounded=0;orthogonalLoop=1;jettySize=auto;html=1;" edge="1" parent="1" source="r-1iJy8fbPnaVpHln99F-10" target="r-1iJy8fbPnaVpHln99F-41">
          <mxGeometry relative="1" as="geometry">
            <mxPoint x="940" y="320" as="targetPoint" />
            <Array as="points">
              <mxPoint x="820" y="360" />
              <mxPoint x="1020" y="360" />
            </Array>
          </mxGeometry>
        </mxCell>
        <mxCell id="r-1iJy8fbPnaVpHln99F-10" value="&lt;font style=&quot;font-size: 22px;&quot;&gt;Texturing&lt;/font&gt;" style="rounded=0;whiteSpace=wrap;html=1;fillColor=#d5e8d4;strokeColor=#82b366;" vertex="1" parent="1">
          <mxGeometry x="745" y="420" width="100" height="40" as="geometry" />
        </mxCell>
        <mxCell id="r-1iJy8fbPnaVpHln99F-20" value="&lt;font style=&quot;font-size: 16px;&quot;&gt;A &lt;span dir=&quot;ltr&quot; role=&quot;presentation&quot; style=&quot;left: 327.495px; top: 854.709px; font-family: sans-serif; transform: scaleX(0.882208);&quot;&gt;Stable&lt;/span&gt;&lt;span dir=&quot;ltr&quot; role=&quot;presentation&quot; style=&quot;left: 379.384px; top: 854.709px; font-family: sans-serif;&quot;&gt; &lt;/span&gt;&lt;span dir=&quot;ltr&quot; role=&quot;presentation&quot; style=&quot;left: 393.622px; top: 854.709px; font-family: sans-serif; transform: scaleX(0.958834);&quot;&gt;Modeling&lt;/span&gt;&lt;span dir=&quot;ltr&quot; role=&quot;presentation&quot; style=&quot;left: 474.34px; top: 854.709px; font-family: sans-serif;&quot;&gt; &lt;/span&gt;&lt;span dir=&quot;ltr&quot; role=&quot;presentation&quot; style=&quot;left: 488.578px; top: 854.709px; font-family: sans-serif; transform: scaleX(0.999379);&quot;&gt;of&lt;/span&gt;&lt;span dir=&quot;ltr&quot; role=&quot;presentation&quot; style=&quot;left: 505.867px; top: 854.709px; font-family: sans-serif;&quot;&gt; &lt;/span&gt;&lt;span dir=&quot;ltr&quot; role=&quot;presentation&quot; style=&quot;left: 520.105px; top: 854.709px; font-family: sans-serif; transform: scaleX(0.905335);&quot;&gt;Large&lt;/span&gt;&lt;span dir=&quot;ltr&quot; role=&quot;presentation&quot; style=&quot;left: 568.134px; top: 854.709px; font-family: sans-serif;&quot;&gt; &lt;/span&gt;&lt;span dir=&quot;ltr&quot; role=&quot;presentation&quot; style=&quot;left: 582.372px; top: 854.709px; font-family: sans-serif; transform: scaleX(0.902499);&quot;&gt;Plant&lt;/span&gt;&lt;br role=&quot;presentation&quot;&gt;&lt;span dir=&quot;ltr&quot; role=&quot;presentation&quot; style=&quot;left: 190.779px; top: 879.615px; font-family: sans-serif; transform: scaleX(0.917045);&quot;&gt;Ecosystems&lt;/span&gt;&lt;/font&gt;" style="text;html=1;align=center;verticalAlign=middle;whiteSpace=wrap;rounded=0;fontSize=16;fillColor=#fff2cc;strokeColor=#d6b656;" vertex="1" parent="1">
          <mxGeometry x="1200" y="400" width="200" height="80" as="geometry" />
        </mxCell>
        <mxCell id="r-1iJy8fbPnaVpHln99F-22" value="Real-Time Fluid Dynamics for Games" style="text;html=1;align=center;verticalAlign=middle;whiteSpace=wrap;rounded=0;fontSize=16;fillColor=#fff2cc;strokeColor=#d6b656;" vertex="1" parent="1">
          <mxGeometry x="150" y="580" width="180" height="60" as="geometry" />
        </mxCell>
        <mxCell id="r-1iJy8fbPnaVpHln99F-25" value="&lt;font style=&quot;font-size: 16px;&quot;&gt;Terrain Rendering in Frostbite us&lt;span dir=&quot;ltr&quot; role=&quot;presentation&quot; style=&quot;left: 190.779px; top: 979.24px; font-family: sans-serif; transform: scaleX(0.98635);&quot;&gt;ing Procedural shader splatting&lt;/span&gt;&lt;/font&gt;" style="text;html=1;align=center;verticalAlign=middle;whiteSpace=wrap;rounded=0;fontSize=16;fillColor=#fff2cc;strokeColor=#d6b656;" vertex="1" parent="1">
          <mxGeometry x="670" y="230" width="220" height="80" as="geometry" />
        </mxCell>
        <mxCell id="r-1iJy8fbPnaVpHln99F-28" value="&lt;font style=&quot;font-size: 16px;&quot;&gt;Interactive&lt;br role=&quot;presentation&quot;&gt;&lt;span dir=&quot;ltr&quot; role=&quot;presentation&quot; style=&quot;left: 190.779px; top: 1053.96px; font-family: sans-serif; transform: scaleX(1.02882);&quot;&gt;Terrain Modeling Using Hydraulic Erosion&lt;/span&gt;&lt;/font&gt;" style="text;html=1;align=center;verticalAlign=middle;whiteSpace=wrap;rounded=0;fontSize=16;fillColor=#fff2cc;strokeColor=#d6b656;" vertex="1" parent="1">
          <mxGeometry x="345" y="230" width="180" height="60" as="geometry" />
        </mxCell>
        <mxCell id="r-1iJy8fbPnaVpHln99F-30" value="&lt;font style=&quot;font-size: 16px;&quot;&gt;Fast Hydraulic and Thermal Erosion on&lt;br role=&quot;presentation&quot;&gt;&lt;span dir=&quot;ltr&quot; role=&quot;presentation&quot; style=&quot;left: 190.779px; top: 1153.59px; font-family: sans-serif; transform: scaleX(1.06137);&quot;&gt;the GPU&lt;/span&gt;&lt;/font&gt;" style="text;html=1;align=center;verticalAlign=middle;whiteSpace=wrap;rounded=0;fontSize=16;fillColor=#fff2cc;strokeColor=#d6b656;" vertex="1" parent="1">
          <mxGeometry x="150" y="310" width="180" height="60" as="geometry" />
        </mxCell>
        <mxCell id="r-1iJy8fbPnaVpHln99F-34" value="F&lt;font style=&quot;font-size: 16px;&quot;&gt;ast Hydraulic&lt;br role=&quot;presentation&quot;&gt;&lt;span dir=&quot;ltr&quot; role=&quot;presentation&quot; style=&quot;left: 190.779px; top: 1228.31px; font-family: sans-serif; transform: scaleX(0.917841);&quot;&gt;Erosion&lt;/span&gt;&lt;span dir=&quot;ltr&quot; role=&quot;presentation&quot; style=&quot;left: 255.349px; top: 1228.31px; font-family: sans-serif;&quot;&gt; &lt;/span&gt;&lt;span dir=&quot;ltr&quot; role=&quot;presentation&quot; style=&quot;left: 267.844px; top: 1228.31px; font-family: sans-serif; transform: scaleX(0.940636);&quot;&gt;Simulation&lt;/span&gt;&lt;span dir=&quot;ltr&quot; role=&quot;presentation&quot; style=&quot;left: 358.96px; top: 1228.31px; font-family: sans-serif;&quot;&gt; &lt;/span&gt;&lt;span dir=&quot;ltr&quot; role=&quot;presentation&quot; style=&quot;left: 371.455px; top: 1228.31px; font-family: sans-serif; transform: scaleX(0.866209);&quot;&gt;and&lt;/span&gt;&lt;span dir=&quot;ltr&quot; role=&quot;presentation&quot; style=&quot;left: 401.426px; top: 1228.31px; font-family: sans-serif;&quot;&gt; &lt;/span&gt;&lt;span dir=&quot;ltr&quot; role=&quot;presentation&quot; style=&quot;left: 413.941px; top: 1228.31px; font-family: sans-serif; transform: scaleX(0.942394);&quot;&gt;Visualization&lt;/span&gt;&lt;span dir=&quot;ltr&quot; role=&quot;presentation&quot; style=&quot;left: 523.385px; top: 1228.31px; font-family: sans-serif;&quot;&gt; &lt;/span&gt;&lt;span dir=&quot;ltr&quot; role=&quot;presentation&quot; style=&quot;left: 535.879px; top: 1228.31px; font-family: sans-serif; transform: scaleX(0.899801);&quot;&gt;on&lt;/span&gt;&lt;span dir=&quot;ltr&quot; role=&quot;presentation&quot; style=&quot;left: 556.635px; top: 1228.31px; font-family: sans-serif;&quot;&gt; &lt;/span&gt;&lt;span dir=&quot;ltr&quot; role=&quot;presentation&quot; style=&quot;left: 569.13px; top: 1228.31px; font-family: sans-serif; transform: scaleX(0.970187);&quot;&gt;GPU&lt;/span&gt;&lt;/font&gt;" style="text;html=1;align=center;verticalAlign=middle;whiteSpace=wrap;rounded=0;fontSize=16;fillColor=#fff2cc;strokeColor=#d6b656;" vertex="1" parent="1">
          <mxGeometry x="150" y="390" width="180" height="60" as="geometry" />
        </mxCell>
        <mxCell id="r-1iJy8fbPnaVpHln99F-36" value="&lt;font style=&quot;font-size: 16px;&quot;&gt;Implementation of a method for hy&lt;span dir=&quot;ltr&quot; role=&quot;presentation&quot; style=&quot;left: 190.779px; top: 1327.93px; font-family: sans-serif; transform: scaleX(0.944226);&quot;&gt;draulic erosion&lt;/span&gt;&lt;/font&gt;" style="text;html=1;align=center;verticalAlign=middle;whiteSpace=wrap;rounded=0;fontSize=16;fillColor=#fff2cc;strokeColor=#d6b656;" vertex="1" parent="1">
          <mxGeometry x="150" y="470" width="180" height="60" as="geometry" />
        </mxCell>
        <mxCell id="r-1iJy8fbPnaVpHln99F-38" value="&lt;font style=&quot;font-size: 16px;&quot;&gt;Procedural Gener&lt;span dir=&quot;ltr&quot; role=&quot;presentation&quot; style=&quot;left: 190.779px; top: 1402.65px; font-family: sans-serif; transform: scaleX(0.962037);&quot;&gt;ation of Mediterranean Environments&lt;/span&gt;&lt;/font&gt;" style="text;html=1;align=center;verticalAlign=middle;whiteSpace=wrap;rounded=0;fontSize=16;fillColor=#fff2cc;strokeColor=#d6b656;" vertex="1" parent="1">
          <mxGeometry x="1290" y="730" width="200" height="80" as="geometry" />
        </mxCell>
        <mxCell id="r-1iJy8fbPnaVpHln99F-41" value="&lt;font style=&quot;font-size: 16px;&quot;&gt;Triplanar&lt;span dir=&quot;ltr&quot; role=&quot;presentation&quot; style=&quot;left: 738.725px; top: 132.417px; font-family: sans-serif; transform: scaleX(0.958185);&quot;&gt; Displacement Mapping for Terrain Rendering&lt;/span&gt;&lt;/font&gt;" style="text;html=1;align=center;verticalAlign=middle;whiteSpace=wrap;rounded=0;fontSize=16;fillColor=#fff2cc;strokeColor=#d6b656;" vertex="1" parent="1">
          <mxGeometry x="930" y="230" width="180" height="60" as="geometry" />
        </mxCell>
      </root>
    </mxGraphModel>
  </diagram>
</mxfile>
